<svg width="100" height="100" viewBox="0 0 100 100" fill="none" xmlns="http://www.w3.org/2000/svg">
<path d="M42.8571 7.49999C43.6153 6.28976 44.6684 5.29199 45.9178 4.60034C47.1673 3.90869 48.5719 3.54584 50 3.54584C51.4281 3.54584 52.8327 3.90869 54.0821 4.60034C55.3316 5.29199 56.3847 6.28976 57.1429 7.49999L71 29.4286L89.0714 31.6428C90.5702 31.8103 91.9948 32.3836 93.1918 33.301C94.3888 34.2184 95.3127 35.4451 95.8639 36.8489C96.4151 38.2526 96.5727 39.7802 96.3198 41.2669C96.0669 42.7537 95.413 44.1432 94.4286 45.2857L79.3571 62.5714L84.2143 86.5C84.5187 88.0613 84.3713 89.677 83.7893 91.1574C83.2072 92.6377 82.2148 93.9213 80.9286 94.8571C79.6262 95.7759 78.0917 96.31 76.5003 96.3984C74.9089 96.4868 73.3247 96.126 71.9286 95.3571L50 83.3571L28.0714 95.3571C26.6753 96.126 25.0911 96.4868 23.4997 96.3984C21.9083 96.31 20.3738 95.7759 19.0714 94.8571C17.7852 93.9213 16.7928 92.6377 16.2107 91.1574C15.6287 89.677 15.4813 88.0613 15.7857 86.5L20.6429 62.5714L5.57143 45.2857C4.58704 44.1432 3.93314 42.7537 3.68021 41.2669C3.42729 39.7802 3.58493 38.2526 4.13614 36.8489C4.68735 35.4451 5.61123 34.2184 6.80819 33.301C8.00515 32.3836 9.4298 31.8103 10.9286 31.6428L29 29.4286L42.8571 7.49999Z" stroke="white" stroke-linecap="round" stroke-linejoin="round"/>
<path d="M50 68V39.4286H42.8571" stroke="white" stroke-linecap="round" stroke-linejoin="round"/>
<path d="M39.2857 68H60.7143" stroke="white" stroke-linecap="round" stroke-linejoin="round"/>
</svg>
